<svg width="640" height="400" viewBox="0 0 640 400" fill="none" xmlns="http://www.w3.org/2000/svg" font-family="Montserrat, -apple-system, 'Segoe UI', sans-serif">
  <defs>
    <radialGradient id="hubGlow" cx="50%" cy="50%" r="50%">
      <stop offset="0%" stop-color="#5B8DB8" stop-opacity="0.18"/>
      <stop offset="100%" stop-color="#5B8DB8" stop-opacity="0"/>
    </radialGradient>
  </defs>
  <rect width="640" height="400" rx="14" fill="#0D0D0D"/>
  <rect x="0.5" y="0.5" width="639" height="399" rx="13.5" stroke="#242424"/>

  <!-- connection lines -->
  <g stroke="#2c2c2c" stroke-width="1.4">
    <path d="M126 96 Q 220 140 268 178" />
    <path d="M110 200 L 250 200" />
    <path d="M126 304 Q 220 260 268 222" />
    <path d="M514 96 Q 420 140 372 178" />
    <path d="M530 200 L 390 200" />
    <path d="M514 304 Q 420 260 372 222" />
  </g>
  <!-- animated-feel data dots -->
  <g fill="#5B8DB8">
    <circle cx="196" cy="126" r="3" opacity="0.9"/>
    <circle cx="180" cy="200" r="3" opacity="0.7"/>
    <circle cx="196" cy="274" r="3" opacity="0.9"/>
    <circle cx="444" cy="126" r="3" opacity="0.7"/>
    <circle cx="460" cy="200" r="3" opacity="0.9"/>
    <circle cx="444" cy="274" r="3" opacity="0.7"/>
  </g>

  <!-- hub -->
  <circle cx="320" cy="200" r="110" fill="url(#hubGlow)"/>
  <circle cx="320" cy="200" r="58" fill="#141414" stroke="#5B8DB8" stroke-width="1.6"/>
  <g transform="translate(269.4,154) scale(1.15)">
    <path d="M30 16 L58 16" stroke="#5B8DB8" stroke-width="3" stroke-linecap="round"/>
    <path d="M44 16 L44 62" stroke="#5B8DB8" stroke-width="3" stroke-linecap="round"/>
    <path d="M58 24 C 46 20, 33 24, 33 34 C 33 42, 43 44, 47 46 C 55 49, 57 53, 55 58 C 52 65, 38 67, 31 61 L34 57 C 40 61, 49 60, 51 56 C 52 53, 49 50, 44 48 C 36 45, 29 42, 29 34 C 29 26, 44 18, 58 24 Z" fill="#C7CED5" transform="rotate(10 43 41)"/>
  </g>

  <!-- broker chips (left) -->
  <g font-size="12" fill="#bbb">
    <rect x="20" y="76" width="118" height="40" rx="20" fill="#141414" stroke="#2a2a2a"/>
    <text x="79" y="101" text-anchor="middle">Schwab</text>
    <rect x="8" y="180" width="118" height="40" rx="20" fill="#141414" stroke="#2a2a2a"/>
    <text x="67" y="205" text-anchor="middle">Fidelity</text>
    <rect x="20" y="284" width="118" height="40" rx="20" fill="#141414" stroke="#2a2a2a"/>
    <text x="79" y="309" text-anchor="middle">E*TRADE</text>
  </g>
  <!-- broker chips (right) -->
  <g font-size="12" fill="#bbb">
    <rect x="502" y="76" width="118" height="40" rx="20" fill="#141414" stroke="#2a2a2a"/>
    <text x="561" y="101" text-anchor="middle">Robinhood</text>
    <rect x="514" y="180" width="118" height="40" rx="20" fill="#141414" stroke="#2a2a2a"/>
    <text x="573" y="205" text-anchor="middle">IBKR</text>
    <rect x="502" y="284" width="118" height="40" rx="20" fill="#141414" stroke="#2a2a2a"/>
    <text x="561" y="309" text-anchor="middle">Webull</text>
  </g>

  <text x="320" y="358" font-size="13" fill="#ccc" text-anchor="middle" font-weight="300">Every broker. One journal.</text>
  <text x="320" y="378" font-size="10" fill="#555" text-anchor="middle">Read-only connections · Trades import automatically</text>
</svg>
